<svg width="403" height="68" viewBox="0 0 403 68" fill="none" xmlns="http://www.w3.org/2000/svg">
<g clip-path="url(#clip0_1511_8)">
<path d="M42.6 29C41.3 30.1 40.1 31.1 38.8 32.2C37.5 33.3 37.3 34.5 38.2 35.5C39 36.5 40.2 36.5 41.5 35.5C44.3 33.3 47 31 49.8 28.8C51.7 27.2 51.7 25.2 49.8 23.6C47.1 21.3 44.3 19.1 41.5 16.8C40.3 15.8 39 15.9 38.2 16.8C37.4 17.8 37.6 19.1 38.8 20C40.3 21.3 41.8 22.5 43.3 23.7C43.1 24.2 42.7 24 42.5 24C34 24 25.4 24 16.9 24C14.6 24 12.7 23.3 11.7 21C10.7 18.8 11.4 16.9 13 15.2C20.8 7 30.4 4 41.2 7.3C51.9 10.5 58.3 18 60.4 29C60.8 31 61 33 60.8 35C60.7 35.7 60.9 36 61.7 35.9C64.8 35.8 64.5 36.5 64.5 33.2C64.3 17.8 52.5 4.5 37.3 2.7C23.2 0.999997 9.9 8.8 4.6 22C3.8 24 3.8 24 1.4 23.7C2.3 20.6 3.6 17.7 5.4 15.1C11.4 6.5 19.4 1.5 29.8 0.199997C47.2 -1.8 63.5 10.6 66.4 28C66.7 29.8 66.9 31.7 66.9 33.6C66.9 36.6 64.6 38.9 61.6 39C49 39 36.3 39 23.7 39C23.6 39 23.5 38.9 23.4 38.9C24.9 37.6 26.4 36.4 27.9 35.2C29.2 34.1 29.4 33 28.6 31.9C27.7 30.9 26.5 30.9 25.2 31.9C22.5 34.1 19.7 36.3 17.1 38.6C15.2 40.2 15.1 42.2 17.1 43.8C19.9 46.1 22.7 48.4 25.5 50.6C26.7 51.5 27.8 51.5 28.7 50.5C29.5 49.6 29.4 48.4 28.3 47.4C26.8 46.1 25.3 44.9 23.8 43.6C32.5 43.6 41.2 43.6 49.9 43.6C50.4 43.6 51 43.8 51.5 43.4C55.5 44.1 57.2 48.3 54.6 51.5C49.7 57.3 43.4 60.5 35.9 61.2C22.9 62.4 10.4 53.6 7.1 40.6C6.4 37.9 6.1 35.2 6.2 32.5C6.2 31.8 6.1 31.5 5.4 31.6C2.2 31.7 2.6 31.1 2.7 34.2C2.8 49.3 13.9 62.2 28.8 64.6C43.4 67 57.4 58.8 62.8 44.8C63.2 43.8 64.5 43.3 65.4 43.7C65.9 44 65.6 44.3 65.5 44.6C64.1 48.9 61.9 52.7 59 56C47.3 69.3 27.7 71.4 13.6 60.6C4.5 53.6 0 44.6 0 33.6C0 30.9 1.9 28.9 4.6 28.5C5.1 29 5.6 28.8 6.2 28.8C17.8 28.8 29.4 28.8 41 28.8C41.5 28.7 42.1 28.5 42.6 29Z" fill="black"/>
<path d="M103.6 39.8H89.5L87.2 46.5H77.5L91.3 8.59998H102L115.7 46.5H105.9L103.6 39.8ZM101.3 32.6L96.6 20.7L92 32.6H101.3Z" fill="black"/>
<path d="M139.3 17.2C140.9 18.1 142.9 23.1 143.8 24.5L143 16.3H152.2V46.4C152.2 49.2 151.7 51.7 150.6 53.9C149.5 56.1 147.8 57.9 145.6 59.3C143.4 60.6 140.6 61.3 137.2 61.3C132.7 61.3 129.1 60.2 126.3 58.1C123.5 56 121.9 53.1 121.5 49.5H130.6C130.9 50.7 131.6 51.6 132.7 52.2C133.8 52.9 135.1 53.2 136.7 53.2C138.6 53.2 140.1 52.7 141.3 51.6C142.4 50.5 143 48.7 143 46.3V42C142.1 43.4 140.9 44.5 139.3 45.4C137.7 46.3 135.9 46.7 133.7 46.7C131.2 46.7 129 46.1 126.9 44.8C124.9 43.5 123.3 41.7 122.1 39.3C120.9 36.9 120.3 34.2 120.3 31.1C120.3 28 120.9 25.3 122.1 22.9C123.3 20.6 124.9 18.8 126.9 17.5C128.9 16.2 131.2 15.6 133.7 15.6C135.9 15.9 137.7 16.3 139.3 17.2ZM141.1 25.9C139.8 24.6 138.3 23.9 136.4 23.9C134.5 23.9 133 24.6 131.7 25.9C130.4 27.2 129.8 29 129.8 31.3C129.8 33.6 130.4 35.4 131.7 36.8C133 38.1 134.5 38.8 136.4 38.8C138.3 38.8 139.8 38.1 141.1 36.8C142.4 35.5 143 33.6 143 31.3C143 29 142.4 27.3 141.1 25.9Z" fill="black"/>
<path d="M167.2 45C164.8 43.7 163 41.9 161.6 39.6C160.2 37.3 159.6 34.5 159.6 31.4C159.6 28.3 160.3 25.6 161.7 23.2C163.1 20.8 164.9 19 167.3 17.8C169.7 16.5 172.3 15.9 175.3 15.9C178.3 15.9 180.9 16.5 183.3 17.8C185.7 19.1 187.5 20.9 188.9 23.2C190.3 25.6 191 28.3 191 31.4C191 34.5 190.3 37.2 188.9 39.6C187.5 42 185.6 43.8 183.2 45C180.8 46.3 178.1 46.9 175.2 46.9C172.2 46.9 169.6 46.3 167.2 45ZM179.7 37C180.9 35.7 181.6 33.9 181.6 31.4C181.6 28.9 181 27.1 179.8 25.8C178.6 24.5 177.1 23.9 175.3 23.9C173.5 23.9 172 24.5 170.8 25.8C169.6 27.1 169 28.9 169 31.4C169 33.8 169.6 35.7 170.8 37C172 38.3 173.4 38.9 175.2 38.9C176.9 38.9 178.4 38.3 179.7 37Z" fill="black"/>
<path d="M211.6 17.4C213.2 16.4 215 16 217 16V25.8H214.5C212.2 25.8 210.5 26.3 209.3 27.3C208.1 28.3 207.6 30 207.6 32.5V46.5H198.4V16.3H207.6L206 22.7C207.1 21.1 210 18.4 211.6 17.4Z" fill="black"/>
<path d="M224.6 11.8C223.6 10.8 223.1 9.69999 223.1 8.29999C223.1 6.89999 223.6 5.69999 224.6 4.69999C225.6 3.69999 226.9 3.29999 228.6 3.29999C230.2 3.29999 231.5 3.79999 232.5 4.69999C233.5 5.69999 234 6.89999 234 8.29999C234 9.69999 233.5 10.9 232.5 11.8C231.5 12.8 230.2 13.2 228.6 13.2C227 13.2 225.6 12.7 224.6 11.8ZM233.2 16.3V46.4H224V16.3H233.2Z" fill="black"/>
<path d="M242.4 23.2C243.7 20.9 245.5 19.1 247.7 17.8C250 16.5 252.6 15.9 255.6 15.9C259.4 15.9 262.5 16.9 265.1 18.9C267.6 20.9 269.3 23.7 270.1 27.3H260.3C259.5 25 257.9 23.8 255.5 23.8C253.8 23.8 252.5 24.5 251.5 25.8C250.5 27.1 250 29 250 31.4C250 33.8 250.5 35.7 251.5 37C252.5 38.3 253.9 39 255.5 39C257.9 39 259.5 37.8 260.3 35.5H270.1C269.3 39 267.6 41.8 265.1 43.8C262.5 45.8 259.4 46.8 255.6 46.8C252.6 46.8 250 46.2 247.7 44.9C245.4 43.6 243.6 41.8 242.4 39.5C241.1 37.2 240.5 34.4 240.5 31.3C240.5 28.3 241.2 25.5 242.4 23.2Z" fill="black"/>
<path d="M287.2 34C285.2 33.4 283.5 32.7 282.1 32C280.7 31.3 279.6 30.4 278.8 29.4C278 28.4 277.7 27.1 277.7 25.6C277.7 24.1 278.1 22.7 278.9 21.5C279.7 20.3 280.9 19.3 282.4 18.5C283.9 17.8 285.7 17.4 287.7 17.4C289.9 17.4 291.8 17.8 293.3 18.6C294.9 19.4 296.1 20.4 296.9 21.8C297.7 23.2 298.2 24.6 298.2 26.2H293.4C293.4 25.4 293.2 24.6 292.7 23.9C292.2 23.2 291.6 22.6 290.8 22.1C290 21.6 288.9 21.4 287.7 21.4C286.5 21.4 285.4 21.6 284.6 22C283.8 22.4 283.2 22.9 282.9 23.5C282.6 24.1 282.3 24.8 282.3 25.5C282.3 26.2 282.5 26.8 282.8 27.3C283.1 27.8 283.8 28.3 284.7 28.7C285.6 29.1 287 29.6 288.7 30.1C292 31 294.4 32.2 296 33.4C297.6 34.6 298.4 36.5 298.4 38.8C298.4 41.3 297.4 43.3 295.5 44.8C293.6 46.3 291 47.1 287.8 47.1C285.4 47.1 283.4 46.7 281.7 45.8C280 44.9 278.8 43.8 277.9 42.4C277 41 276.6 39.5 276.6 38H281.3C281.4 39.3 281.8 40.4 282.4 41.2C283 42 283.9 42.5 284.8 42.8C285.7 43.1 286.7 43.3 287.7 43.3C289.6 43.3 291 42.9 292 42.2C293 41.4 293.5 40.5 293.5 39.3C293.5 38.6 293.3 37.9 293 37.3C292.7 36.7 292 36.2 291.1 35.7C290.2 35 288.9 34.5 287.2 34Z" fill="black"/>
<path d="M336.5 17.9H341.2L333.5 46.4H329.6L323.1 24.2L316.7 46.4H312.7L305 17.9H309.7L314.9 39.8L321.1 17.9H324.9L331.3 40.1L336.5 17.9Z" fill="black"/>
<path d="M369.8 40.2C369.8 41.2 369.9 42.2 370 43.2C370.1 44.2 370.4 45.2 370.7 46V46.4H365.7C365.4 45.6 366.3 42.9 366.1 41.6C365.3 42.6 363.1 45.1 361.8 45.9C360.5 46.7 359 47 357.3 47C354.6 47 352.4 46.2 350.7 44.7C349 43.2 348.2 41.2 348.2 38.6C348.2 35.7 349.3 33.4 351.4 31.7C353.6 30 356.6 29.2 360.5 29.2H365V26.5C365 23 363.1 21.3 359.4 21.3C357.6 21.3 356.2 21.8 355.1 22.7C354 23.6 353.5 24.7 353.5 25.9H348.7C348.7 24.5 349.1 23.2 350 21.9C350.9 20.6 352.2 19.6 353.8 18.7C355.4 17.8 357.3 17.4 359.5 17.4C361.5 17.4 363.2 17.7 364.8 18.4C366.4 19.1 367.5 20 368.4 21.4C369.3 22.7 369.7 24.5 369.7 26.6V40.2H369.8ZM358 42.8C359.1 42.8 360.2 42.6 361.1 42.2C362 41.8 362.8 41.3 363.5 40.7C364.2 40.1 364.7 39.4 365 38.7V32.6H361.1C358.5 32.6 356.5 33.1 355 34C353.6 34.9 352.9 36.3 352.9 38.1C352.9 39.6 353.3 40.8 354.2 41.7C355.1 42.6 356.4 42.8 358 42.8Z" fill="black"/>
<path d="M392.5 17.4C395.9 17.4 398.5 18.6 400.3 21C402.1 23.4 403 26.9 403 31.4V33C403 37.3 402.1 40.8 400.3 43.2C398.5 45.7 395.9 46.9 392.6 46.9C390.9 46.9 389.4 46.6 388.1 46C386.8 45.4 385.7 44.5 384.8 43.4V57.3H380V17.9H384.4L382.5 23.5C383.4 22.3 386.6 19 387.9 18.4C389.2 17.8 390.8 17.4 392.5 17.4ZM398.3 33V31.4C398.3 29.4 398.1 27.6 397.5 26.1C397 24.6 396.2 23.4 395.2 22.6C394.2 21.8 392.8 21.4 391.2 21.4C389.6 21.4 388.3 21.8 387.3 22.5C386.3 23.2 385.5 24.2 384.9 25.3V39.2C385.5 40.3 386.3 41.2 387.3 42C388.3 42.8 389.7 43.1 391.3 43.1C392.9 43.1 394.3 42.7 395.3 41.9C396.3 41.1 397.1 39.9 397.6 38.4C398 36.8 398.3 35.1 398.3 33Z" fill="black"/>
</g>
<defs>
<clipPath id="clip0_1511_8">
<rect width="403" height="67.3" fill="white"/>
</clipPath>
</defs>
</svg>
